<svg xmlns="http://www.w3.org/2000/svg"><symbol fill="none" id="arrow" viewBox="0 0 26 49"><title>arrow</title><path d="M2.01 1c.266 0 .52.107.708.298l21.99 22.473c.39.399.39 1.046 0 1.444L2.717 47.688a.984.984 0 0 1-1.413.025 1.038 1.038 0 0 1 0-1.47l21.281-21.749L1.303 2.744A1.037 1.037 0 0 1 1.301 1.3a.99.99 0 0 1 .71-.3Z" fill="#000" stroke="#000" stroke-width="2"/></symbol><symbol id="search" viewBox="0 0 20 20"><title>search</title><path d="m19.724 18.263-3.702-3.697c2.832-3.524 2.559-8.735-.67-11.936A8.949 8.949 0 0 0 8.992 0c-2.41 0-4.645.943-6.359 2.63A8.93 8.93 0 0 0 0 8.983c0 2.407.944 4.64 2.633 6.352a8.949 8.949 0 0 0 6.36 2.63 9.034 9.034 0 0 0 5.613-1.96l3.702 3.697a.982.982 0 0 0 .695.298c.273 0 .522-.1.696-.298.397-.422.397-1.042.025-1.439Zm-3.726-9.305a6.94 6.94 0 0 1-2.037 4.938 6.955 6.955 0 0 1-4.944 2.034 6.956 6.956 0 0 1-4.943-2.034 6.94 6.94 0 0 1-2.037-4.938A6.94 6.94 0 0 1 4.074 4.02a6.956 6.956 0 0 1 4.943-2.035c1.863 0 3.627.72 4.944 2.035a6.94 6.94 0 0 1 2.037 4.938Z"/></symbol><symbol id="symbol" viewBox="0 0 28 20"><title>symbol</title><path d="M.05 12h5.96l-3.973 8h5.959l3.972-8V0H.051v12ZM15.94 0v12h5.96l-3.973 8h5.959l3.972-8V0H15.941Z"/></symbol></svg>