<svg width="0" height="0" class="hidden">
  <symbol fill="none" xmlns="http://www.w3.org/2000/svg" viewBox="0 0 26 49" id="arrow">
    <path d="M2.01077 1C2.27604 0.999519 2.53064 1.10678 2.71842 1.29831L24.7074 23.771C25.0975 24.1699 25.0975 24.8165 24.7074 25.2154L2.71842 47.6882C2.33489 48.0939 1.70221 48.1052 1.3051 47.7133C0.908079 47.3213 0.897116 46.6747 1.28055 46.2689C1.28861 46.2603 1.29676 46.252 1.3051 46.2438L22.5864 24.4942L1.30313 2.74464C0.912296 2.34626 0.911545 1.69946 1.30135 1.30003C1.48932 1.10754 1.74466 0.999519 2.01077 1Z" fill="black" stroke="black" stroke-width="2"></path>
  </symbol>
  <symbol xmlns="http://www.w3.org/2000/svg" viewBox="0 0 20 20" id="search">
    <path d="M19.7236 18.263L16.0223 14.5658C18.8541 11.0422 18.5809 5.83127 15.3516 2.63027C13.6624 0.942928 11.4019 0 8.99236 0C6.5828 0 4.34713 0.942928 2.63312 2.63027C0.943949 4.31762 0 6.57568 0 8.98263C0 11.3896 0.943949 13.6228 2.63312 15.335C4.32229 17.0223 6.5828 17.9653 8.99236 17.9653C11.0293 17.9653 13.0166 17.2705 14.6064 16.005L18.3076 19.7022C18.5064 19.9007 18.7548 20 19.0032 20C19.2764 20 19.5248 19.9007 19.6987 19.7022C20.0962 19.2804 20.0962 18.66 19.7236 18.263ZM15.9975 8.95782C15.9975 10.8189 15.2771 12.5806 13.9605 13.8958C12.644 15.2109 10.8803 15.9305 9.0172 15.9305C7.15414 15.9305 5.39045 15.2109 4.07389 13.8958C2.75733 12.5806 2.03694 10.8189 2.03694 8.95782C2.03694 7.09678 2.75733 5.33499 4.07389 4.01985C5.39045 2.70471 7.15414 1.98511 9.0172 1.98511C10.8803 1.98511 12.644 2.70471 13.9605 4.01985C15.2771 5.33499 15.9975 7.09678 15.9975 8.95782Z"></path>
  </symbol>
</svg>